# Blender v2.78 (sub 0) OBJ File: 'pencil.blend'
# www.blender.org
mtllib pencil.mtl
o Cylinder
v -0.000000 -0.100000 -0.800000
v -0.000000 -0.100000 -0.900000
v 0.050000 -0.086603 -0.800000
v 0.050000 -0.086603 -0.900000
v 0.086603 -0.050000 -0.800000
v 0.086603 -0.050000 -0.900000
v 0.100000 -0.000000 -0.800000
v 0.100000 0.000000 -0.900000
v 0.086603 0.050000 -0.800000
v 0.086603 0.050000 -0.900000
v 0.050000 0.086603 -0.800000
v 0.050000 0.086603 -0.900000
v -0.000000 0.100000 -0.800000
v -0.000000 0.100000 -0.900000
v -0.050000 0.086603 -0.800000
v -0.050000 0.086603 -0.900000
v -0.086603 0.050000 -0.800000
v -0.086603 0.050000 -0.900000
v -0.100000 0.000000 -0.800000
v -0.100000 0.000000 -0.900000
v -0.086603 -0.050000 -0.800000
v -0.086603 -0.050000 -0.900000
v -0.050000 -0.086603 -0.800000
v -0.050000 -0.086603 -0.900000
v -0.000000 -0.000000 1.000000
v 0.086603 -0.050000 0.700000
v 0.086603 0.050000 0.700000
v -0.000000 0.100000 0.700000
v -0.000000 -0.100000 0.700000
v -0.086603 -0.050000 0.700000
v -0.086603 0.050000 0.700000
v 0.030311 -0.017500 0.900000
v 0.035000 -0.000000 0.900000
v 0.017500 0.030311 0.900000
v -0.000000 0.035000 0.900000
v 0.030311 0.017500 0.900000
v 0.017500 -0.030311 0.900000
v -0.000000 -0.035000 0.900000
v -0.017500 -0.030311 0.900000
v -0.030311 -0.017500 0.900000
v -0.035000 -0.000000 0.900000
v -0.030311 0.017500 0.900000
v -0.017500 0.030311 0.900000
v -0.000000 -0.090000 -0.850000
v 0.045000 -0.077942 -0.850000
v 0.077942 -0.045000 -0.850000
v 0.090000 0.000000 -0.850000
v 0.077942 0.045000 -0.850000
v 0.045000 0.077942 -0.850000
v -0.000000 0.090000 -0.850000
v -0.045000 0.077942 -0.850000
v -0.077942 0.045000 -0.850000
v -0.090000 0.000000 -0.850000
v -0.077942 -0.045000 -0.850000
v -0.045000 -0.077942 -0.850000
v -0.000000 -0.090000 -1.014175
v -0.000000 -0.073617 -1.030000
v 0.036808 -0.063754 -1.030000
v 0.045000 -0.077942 -1.014175
v 0.063754 -0.036808 -1.030000
v 0.077942 -0.045000 -1.014175
v 0.073617 0.000000 -1.030000
v 0.090000 0.000000 -1.014175
v 0.063754 0.036808 -1.030000
v 0.077942 0.045000 -1.014175
v 0.036808 0.063754 -1.030000
v 0.045000 0.077942 -1.014175
v -0.000000 0.073617 -1.030000
v -0.000000 0.090000 -1.014175
v -0.036808 0.063754 -1.030000
v -0.045000 0.077942 -1.014175
v -0.063754 0.036808 -1.030000
v -0.077942 0.045000 -1.014175
v -0.073617 0.000000 -1.030000
v -0.090000 0.000000 -1.014175
v -0.063754 -0.036808 -1.030000
v -0.077942 -0.045000 -1.014175
v -0.036808 -0.063754 -1.030000
v -0.045000 -0.077942 -1.014175
vn 0.5000 -0.8660 0.0000
vn 1.0000 0.0000 0.0000
vn 0.5000 0.8660 0.0000
vn -0.5000 0.8660 0.0000
vn -1.0000 0.0000 0.0000
vn -0.5000 -0.8660 -0.0000
vn 0.0000 -0.9477 0.3192
vn 0.0000 -0.9579 0.2871
vn 0.4746 -0.8220 0.3146
vn -0.4746 -0.8220 0.3146
vn -0.8207 -0.4738 0.3192
vn -0.8296 -0.4790 0.2871
vn -0.9492 0.0000 0.3146
vn -0.8296 0.4790 0.2871
vn -0.8207 0.4738 0.3192
vn -0.4746 0.8220 0.3146
vn 0.8207 0.4738 0.3192
vn 0.8296 0.4790 0.2871
vn 0.4746 0.8220 0.3146
vn 0.0000 0.9579 0.2871
vn 0.0000 0.9477 0.3192
vn 0.9492 0.0000 0.3146
vn 0.8296 -0.4790 0.2871
vn 0.8207 -0.4738 0.3192
vn 0.0000 0.0000 1.0000
vn -0.0000 -1.0000 0.0000
vn 0.8660 -0.5000 -0.0000
vn 0.8660 0.5000 0.0000
vn 0.0000 1.0000 0.0000
vn -0.8660 0.5000 0.0000
vn -0.8660 -0.5000 -0.0000
vn 0.0000 0.0000 -1.0000
vn 0.4646 -0.8048 -0.3692
vn 0.8048 -0.4646 -0.3692
vn 0.9293 0.0000 -0.3692
vn -0.9293 0.0000 -0.3692
vn -0.8048 -0.4646 -0.3692
vn 0.0000 0.9293 -0.3692
vn -0.4646 0.8048 -0.3692
vn 0.8048 0.4646 -0.3692
vn -0.4646 -0.8048 -0.3692
vn -0.8048 0.4646 -0.3692
vn 0.4646 0.8048 -0.3692
vn -0.3687 -0.2128 -0.9048
vn 0.3687 0.2128 -0.9048
vn 0.3687 -0.2128 -0.9048
vn 0.0000 -0.9293 -0.3692
vn 0.0000 -0.4257 -0.9048
vn 0.2128 -0.3687 -0.9048
vn 0.4257 0.0000 -0.9048
vn 0.2128 0.3687 -0.9048
vn 0.0000 0.4257 -0.9048
vn -0.2128 0.3687 -0.9048
vn -0.3687 0.2128 -0.9048
vn -0.4257 0.0000 -0.9048
vn -0.2128 -0.3687 -0.9048
usemtl Material.001
s off
f 29//1 1//1 5//1 26//1
f 26//2 5//2 9//2 27//2
f 27//3 9//3 13//3 28//3
f 28//4 13//4 17//4 31//4
f 31//5 17//5 21//5 30//5
f 30//6 21//6 1//6 29//6
usemtl Material.002
s 1
f 38//7 29//8 37//9
f 29//8 38//7 39//10
f 40//11 30//12 39//10
f 30//12 40//11 41//13
f 31//14 41//13 42//15
f 31//14 42//15 43//16
f 36//17 27//18 34//19
f 34//19 27//18 28//20
f 34//19 28//20 35//21
f 43//16 35//21 28//20
f 27//18 36//17 33//22
f 33//22 26//23 27//18
f 32//24 26//23 33//22
f 26//23 32//24 37//9
f 37//9 29//8 26//23
f 39//10 30//12 29//8
f 41//13 31//14 30//12
f 43//16 28//20 31//14
usemtl Material.003
f 33//22 25//25 32//24
f 36//17 25//25 33//22
f 35//21 25//25 34//19
f 34//19 25//25 36//17
f 32//24 25//25 37//9
f 37//9 25//25 38//7
f 38//7 25//25 39//10
f 39//10 25//25 40//11
f 40//11 25//25 41//13
f 41//13 25//25 42//15
f 42//15 25//25 43//16
f 43//16 25//25 35//21
usemtl Material.004
f 17//25 13//25 15//25
f 1//26 2//26 4//1 3//1
f 3//1 4//1 6//27 5//27
f 5//27 6//27 8//2 7//2
f 7//2 8//2 10//28 9//28
f 9//28 10//28 12//3 11//3
f 11//3 12//3 14//29 13//29
f 13//29 14//29 16//4 15//4
f 1//25 21//25 23//25
f 15//4 16//4 18//30 17//30
f 5//25 1//25 3//25
f 17//30 18//30 20//5 19//5
f 9//25 5//25 7//25
f 19//5 20//5 22//31 21//31
f 13//25 9//25 11//25
f 21//31 22//31 24//6 23//6
f 23//6 24//6 2//26 1//26
f 21//25 17//25 19//25
f 4//32 2//32 24//32 22//32 20//32 18//32 16//32 14//32 12//32 10//32 8//32 6//32
usemtl Material.005
f 46//27 45//1 59//33 61//34
f 47//2 46//27 61//34 63//35
f 54//31 53//5 75//36 77//37
f 51//4 50//29 69//38 71//39
f 48//28 47//2 63//35 65//40
f 55//6 54//31 77//37 79//41
f 52//30 51//4 71//39 73//42
f 49//3 48//28 65//40 67//43
f 76//44 64//45 60//46
f 53//5 52//30 73//42 75//36
f 50//29 49//3 67//43 69//38
f 44//26 55//6 79//41 56//47
f 59//33 56//47 57//48 58//49
f 61//34 59//33 58//49 60//46
f 63//35 61//34 60//46 62//50
f 65//40 63//35 62//50 64//45
f 67//43 65//40 64//45 66//51
f 69//38 67//43 66//51 68//52
f 71//39 69//38 68//52 70//53
f 73//42 71//39 70//53 72//54
f 75//36 73//42 72//54 74//55
f 77//37 75//36 74//55 76//44
f 79//41 77//37 76//44 78//56
f 56//47 79//41 78//56 57//48
f 45//1 44//26 56//47 59//33
f 60//46 58//49 57//48
f 57//48 78//56 76//44
f 76//44 74//55 68//52
f 72//54 70//53 68//52
f 68//52 66//51 64//45
f 64//45 62//50 60//46
f 60//46 57//48 76//44
f 74//55 72//54 68//52
f 68//52 64//45 76//44
