# Blender v2.77 (sub 0) OBJ File: 'track.blend'
# www.blender.org
mtllib track.mtl
o Plane
v 0.000000 0.000000 -1.000000
v 1.000000 0.000000 -1.000000
v 0.000000 0.000000 -1.400000
v 1.000000 0.000000 -1.400000
v 0.000000 0.100000 -1.000000
v 1.000000 0.100000 -1.000000
v 0.000000 0.100000 -1.400000
v 1.000000 0.100000 -1.400000
v 0.420000 0.100000 -1.117202
v 0.420000 0.800000 -1.117202
v 0.420000 0.100000 -1.282799
v 0.420000 0.800000 -1.282799
v 0.580000 0.100000 -1.117202
v 0.580000 0.800000 -1.117202
v 0.580000 0.100000 -1.282799
v 0.580000 0.800000 -1.282799
v -0.000500 0.670400 -1.147837
v 1.000500 0.670400 -1.147837
v -0.000500 0.670400 -1.252163
v 1.000500 0.670400 -1.252163
v -0.000500 0.569600 -1.147837
v 1.000500 0.569600 -1.147837
v -0.000500 0.569600 -1.252163
v 1.000500 0.569600 -1.252163
v 0.000000 0.000000 0.000000
v 1.000000 0.000000 0.000000
v 0.000000 0.000000 1.000000
v 1.000000 0.000000 1.000000
v 0.000000 0.000000 1.400000
v 1.000000 0.000000 1.400000
v 0.000000 0.100000 1.000000
v 1.000000 0.100000 1.000000
v 0.000000 0.100000 1.400000
v 1.000000 0.100000 1.400000
v 0.420000 0.100000 1.117202
v 0.420000 0.800000 1.117202
v 0.420000 0.100000 1.282799
v 0.420000 0.800000 1.282799
v 0.580000 0.100000 1.117202
v 0.580000 0.800000 1.117202
v 0.580000 0.100000 1.282799
v 0.580000 0.800000 1.282799
v -0.000500 0.670400 1.147837
v 1.000500 0.670400 1.147837
v -0.000500 0.670400 1.252163
v 1.000500 0.670400 1.252163
v -0.000500 0.569600 1.147837
v 1.000500 0.569600 1.147837
v -0.000500 0.569600 1.252163
v 1.000500 0.569600 1.252163
vt 0.0043 0.5309
vt 0.0045 0.0043
vt 0.5311 0.0045
vt 0.5309 0.5311
vt 0.5835 0.5311
vt 0.5837 0.0045
vt 0.7943 0.0046
vt 0.7942 0.5312
vt 0.8470 0.0046
vt 0.8468 0.5312
vt 0.2630 0.9085
vt 0.1758 0.9085
vt 0.1758 0.5399
vt 0.2630 0.5399
vt 0.0915 0.9085
vt 0.0915 0.5399
vt 0.0043 0.9085
vt 0.0043 0.5399
vt 0.3472 0.9085
vt 0.3472 0.5399
vt 0.3472 0.9957
vt 0.2630 0.9957
vt 0.8830 0.5399
vt 0.8830 0.5948
vt 0.3559 0.5948
vt 0.3559 0.5399
vt 0.8830 0.6479
vt 0.3559 0.6479
vt 0.8830 0.7028
vt 0.3559 0.7028
vt 0.8830 0.7559
vt 0.3559 0.7559
vt 0.5309 0.5311
vt 0.5311 0.0045
vt 0.5835 0.5311
vt 0.7942 0.5312
vt 0.7943 0.0046
vt 0.5837 0.0045
vt 0.8470 0.0046
vt 0.8468 0.5312
vt 0.2630 0.9085
vt 0.2630 0.5399
vt 0.1758 0.5399
vt 0.1758 0.9085
vt 0.0915 0.5399
vt 0.0915 0.9085
vt 0.0043 0.5399
vt 0.0043 0.9085
vt 0.3472 0.9085
vt 0.3472 0.5399
vt 0.2630 0.9957
vt 0.3472 0.9957
vt 0.8830 0.5399
vt 0.3559 0.5399
vt 0.3559 0.5948
vt 0.8830 0.5948
vt 0.3559 0.6479
vt 0.8830 0.6479
vt 0.3559 0.7028
vt 0.8830 0.7028
vt 0.3559 0.7559
vt 0.8830 0.7559
vn 0.0000 1.0000 0.0000
vn 0.0000 0.0000 1.0000
vn 0.0000 0.0000 -1.0000
vn -1.0000 0.0000 0.0000
vn 1.0000 0.0000 0.0000
vn 0.0000 -1.0000 -0.0000
usemtl Material.001
s off
f 25/1/1 26/2/1 2/3/1 1/4/1
f 5/5/1 6/6/1 8/7/1 7/8/1
f 1/4/2 2/3/2 6/6/2 5/5/2
f 4/9/3 3/10/3 7/8/3 8/7/3
f 10/11/4 12/12/4 11/13/4 9/14/4
f 12/12/3 16/15/3 15/16/3 11/13/3
f 16/15/5 14/17/5 13/18/5 15/16/5
f 14/19/2 10/11/2 9/14/2 13/20/2
f 14/19/1 16/21/1 12/22/1 10/11/1
f 18/23/1 20/24/1 19/25/1 17/26/1
f 20/24/3 24/27/3 23/28/3 19/25/3
f 24/27/6 22/29/6 21/30/6 23/28/6
f 22/29/2 18/31/2 17/32/2 21/30/2
f 25/1/1 27/33/1 28/34/1 26/2/1
f 31/35/1 33/36/1 34/37/1 32/38/1
f 27/33/3 31/35/3 32/38/3 28/34/3
f 30/39/2 34/37/2 33/36/2 29/40/2
f 36/41/4 35/42/4 37/43/4 38/44/4
f 38/44/2 37/43/2 41/45/2 42/46/2
f 42/46/5 41/45/5 39/47/5 40/48/5
f 40/49/3 39/50/3 35/42/3 36/41/3
f 40/49/1 36/41/1 38/51/1 42/52/1
f 44/53/1 43/54/1 45/55/1 46/56/1
f 46/56/2 45/55/2 49/57/2 50/58/2
f 50/58/6 49/57/6 47/59/6 48/60/6
f 48/60/3 47/59/3 43/61/3 44/62/3
